<svg width="20" height="20" viewBox="0 0 20 20" fill="none" xmlns="http://www.w3.org/2000/svg">
<g clip-path="url(#clip0_44829_242251)">
<path d="M4.10768 4.10841L7.64102 7.64175M12.3577 12.3584L15.891 15.8917M15.891 4.10841L12.3577 7.64175L15.2993 4.70008M4.10768 15.8917L7.64102 12.3584M18.3327 10.0001C18.3327 14.6025 14.6017 18.3334 9.99935 18.3334C5.39698 18.3334 1.66602 14.6025 1.66602 10.0001C1.66602 5.39771 5.39698 1.66675 9.99935 1.66675C14.6017 1.66675 18.3327 5.39771 18.3327 10.0001ZM13.3327 10.0001C13.3327 11.841 11.8403 13.3334 9.99935 13.3334C8.1584 13.3334 6.66602 11.841 6.66602 10.0001C6.66602 8.15913 8.1584 6.66675 9.99935 6.66675C11.8403 6.66675 13.3327 8.15913 13.3327 10.0001Z" stroke="#5E5E5E" stroke-width="1.5" stroke-linecap="round" stroke-linejoin="round"/>
</g>
<defs>
<clipPath id="clip0_44829_242251">
<rect width="20" height="20" fill="white"/>
</clipPath>
</defs>
</svg>
