<svg width="18" height="18" viewBox="0 0 18 18" fill="none" xmlns="http://www.w3.org/2000/svg">
<path d="M8.75 0C9.56547 0 10.1778 0.586594 10.7168 1.10449C11.0246 1.39897 11.343 1.70347 11.6211 1.81836C11.8765 1.92459 12.2999 1.93125 12.71 1.9375C13.4725 1.94922 14.3367 1.96172 14.9375 2.5625C15.5383 3.16328 15.5508 4.02754 15.5625 4.79004C15.5687 5.20013 15.5754 5.62348 15.6816 5.87891C15.7965 6.15778 16.101 6.47544 16.3955 6.7832C16.9134 7.32297 17.5 7.93453 17.5 8.75C17.5 9.56547 16.9134 10.1778 16.3955 10.7168C16.101 11.0246 15.7965 11.343 15.6816 11.6211C15.5754 11.8765 15.5687 12.2999 15.5625 12.71C15.5508 13.4725 15.5383 14.3367 14.9375 14.9375C14.3367 15.5383 13.4725 15.5508 12.71 15.5625C12.2999 15.5687 11.8765 15.5754 11.6211 15.6816C11.3422 15.7965 11.0246 16.101 10.7168 16.3955C10.177 16.9134 9.56547 17.5 8.75 17.5C7.93453 17.5 7.32219 16.9134 6.7832 16.3955C6.47544 16.101 6.157 15.7965 5.87891 15.6816C5.62348 15.5754 5.20013 15.5687 4.79004 15.5625C4.02754 15.5508 3.16328 15.5383 2.5625 14.9375C1.96172 14.3367 1.94922 13.4725 1.9375 12.71C1.93125 12.2999 1.92459 11.8765 1.81836 11.6211C1.70347 11.3422 1.39897 11.0246 1.10449 10.7168C0.586594 10.177 0 9.56547 0 8.75C0 7.93453 0.586594 7.32219 1.10449 6.7832C1.39897 6.47544 1.70347 6.157 1.81836 5.87891C1.92459 5.62348 1.93125 5.20013 1.9375 4.79004C1.95312 4.02754 1.96172 3.16328 2.5625 2.5625C3.16328 1.96172 4.02754 1.94922 4.79004 1.9375C5.20013 1.93125 5.62504 1.92459 5.87891 1.81836C6.15778 1.70347 6.47544 1.39897 6.7832 1.10449C7.32297 0.586594 7.93453 0 8.75 0ZM8.75 1.25C8.4375 1.25 8.03809 1.63262 7.64746 2.00684C7.25689 2.381 6.85342 2.76912 6.35742 2.97461C5.88086 3.17148 5.33594 3.17969 4.80859 3.1875C4.25859 3.19531 3.69023 3.20508 3.44727 3.44727C3.2043 3.68945 3.19531 4.26172 3.1875 4.80859C3.17969 5.33594 3.17148 5.88086 2.97461 6.35742C2.76912 6.85343 2.37944 7.26001 2.00684 7.64746C1.63418 8.03496 1.25 8.4375 1.25 8.75C1.25 9.0625 1.63262 9.46191 2.00684 9.85254C2.381 10.2431 2.76912 10.6466 2.97461 11.1426C3.17148 11.6191 3.17969 12.1641 3.1875 12.6914C3.19531 13.2414 3.20508 13.8098 3.44727 14.0527C3.68945 14.2957 4.26172 14.3047 4.80859 14.3125C5.33594 14.3203 5.88086 14.3285 6.35742 14.5254C6.85343 14.7309 7.26001 15.1206 7.64746 15.4932C8.03496 15.8658 8.4375 16.25 8.75 16.25C9.0625 16.25 9.46191 15.8674 9.85254 15.4932C10.2431 15.119 10.6466 14.7309 11.1426 14.5254C11.6191 14.3285 12.1641 14.3203 12.6914 14.3125C13.2414 14.3047 13.8098 14.2949 14.0527 14.0527C14.2957 13.8105 14.3047 13.2383 14.3125 12.6914C14.3203 12.1641 14.3285 11.6191 14.5254 11.1426C14.7309 10.6466 15.119 10.2431 15.4932 9.85254C15.8658 9.46504 16.25 9.0625 16.25 8.75C16.25 8.4375 15.8674 8.03809 15.4932 7.64746C15.119 7.25689 14.7309 6.85342 14.5254 6.35742C14.3285 5.88086 14.3203 5.33594 14.3125 4.80859C14.3047 4.25859 14.2949 3.69023 14.0527 3.44727C13.8105 3.2043 13.2383 3.19531 12.6914 3.1875C12.1641 3.17969 11.6191 3.17148 11.1426 2.97461C10.6466 2.76912 10.24 2.37944 9.85254 2.00684C9.46504 1.63418 9.0625 1.25 8.75 1.25ZM11.875 6.24902C11.9571 6.24902 12.0384 6.26547 12.1143 6.29688C12.1901 6.32833 12.2593 6.37451 12.3174 6.43262C12.3755 6.49066 12.4217 6.55987 12.4531 6.63574C12.4845 6.71157 12.501 6.79292 12.501 6.875C12.501 6.95708 12.4845 7.03843 12.4531 7.11426C12.4217 7.19013 12.3755 7.25934 12.3174 7.31738L7.94238 11.6924C7.88434 11.7505 7.81513 11.7967 7.73926 11.8281C7.66343 11.8595 7.58208 11.876 7.5 11.876C7.41792 11.876 7.33657 11.8595 7.26074 11.8281C7.18487 11.7967 7.11566 11.7505 7.05762 11.6924L5.18262 9.81738C5.06534 9.70011 5 9.54085 5 9.375C5 9.20915 5.06534 9.04989 5.18262 8.93262C5.29989 8.81534 5.45915 8.75 5.625 8.75C5.79085 8.75 5.95011 8.81534 6.06738 8.93262L7.5 10.3662L11.4326 6.43262C11.4907 6.37451 11.5599 6.32833 11.6357 6.29688C11.7116 6.26547 11.7929 6.24902 11.875 6.24902Z" fill="currentColor"/>
</svg>
